ffmpeg started on 2026-04-01 at 12:02:58
Report written to "D:\Convert\FFMetrics\reports\ssim_report-6.txt"
Log level: 32
Command line:
ffmpeg -hide_banner -nostdin -r 24000/1001 -i "F:\\Convert\\files\\[DC] Make Heroine ga Oosugiru - 07_Telegram_HEVC(279).mkv" -r 24000/1001 -i "F:\\Convert\\files\\[DC] Make Heroine ga Oosugiru - 07_Telegram.mp4" -lavfi "[0:v]settb=AVTB,setpts=PTS-STARTPTS,format=pix_fmts=yuv420p10le,fps=24000/1001,scale=1920:1080:flags=lanczos:param0=3:out_range=limited:out_color_matrix=bt709:out_chroma_loc=left,setsar=1/1,setdar=(1920/1080)*(1/1),colorspace=format=yuv420p10:range=tv:primaries=bt709:trc=bt709:space=bt709:fast=0[main];[1:v]settb=AVTB,setpts=PTS-STARTPTS,format=pix_fmts=yuv420p,fps=24000/1001,scale=1920:1080:flags=lanczos:param0=3:out_range=limited:out_color_matrix=bt709:out_chroma_loc=left,setsar=1/1,setdar=(1920/1080)*(1/1),colorspace=format=yuv420p:range=tv:primaries=bt709:trc=bt709:space=bt709:fast=0[ref];[main][ref]ssim=eof_action=endall:stats_file='D\\:/Convert/FFMetrics/logs/ssim_logfile-6.txt'" -f null -
Input #0, matroska,webm, from 'F:\Convert\files\[DC] Make Heroine ga Oosugiru - 07_Telegram_HEVC(279).mkv':
  Metadata:
    COMPATIBLE_BRANDS: isomiso2avc1mp41
    MAJOR_BRAND     : isom
    MINOR_VERSION   : 512
    ENCODER         : Lavf61.7.100
  Duration: 00:24:06.79, start: -0.021000, bitrate: 1010 kb/s
  Stream #0:0: Video: hevc (Main 10), yuv420p10le(tv, bt709, progressive), 1920x1080 [SAR 1:1 DAR 16:9], 23.98 fps, 23.98 tbr, 1k tbn (default)
      Metadata:
        HANDLER_NAME    : VideoHandler
        VENDOR_ID       : [0][0][0][0]
        ENCODER         : Lavc61.19.100 libx265
        BPS             : 813377
        DURATION        : 00:24:06.569708333
        NUMBER_OF_FRAMES: 34683
        NUMBER_OF_BYTES : 147075786
        _STATISTICS_WRITING_APP: mkvpropedit v94.0 ('Initiate') 64-bit
        _STATISTICS_WRITING_DATE_UTC: 2026-03-30 13:47:09
        _STATISTICS_TAGS: BPS DURATION NUMBER_OF_FRAMES NUMBER_OF_BYTES
  Stream #0:1: Audio: aac (LC), 48000 Hz, stereo, fltp (default)
      Metadata:
        HANDLER_NAME    : SoundHandler
        VENDOR_ID       : [0][0][0][0]
        ENCODER         : Lavc61.19.100 aac
        BPS             : 193194
        DURATION        : 00:24:06.784000000
        NUMBER_OF_FRAMES: 67819
        NUMBER_OF_BYTES : 34938755
        _STATISTICS_WRITING_APP: mkvpropedit v94.0 ('Initiate') 64-bit
        _STATISTICS_WRITING_DATE_UTC: 2026-03-30 13:47:09
        _STATISTICS_TAGS: BPS DURATION NUMBER_OF_FRAMES NUMBER_OF_BYTES
Input #1, mov,mp4,m4a,3gp,3g2,mj2, from 'F:\Convert\files\[DC] Make Heroine ga Oosugiru - 07_Telegram.mp4':
  Metadata:
    major_brand     : isom
    minor_version   : 512
    compatible_brands: isomiso2avc1mp41
    encoder         : Lavf60.16.100
  Duration: 00:24:06.74, start: 0.000000, bitrate: 3764 kb/s
  Stream #1:0[0x1](und): Video: h264 (High) (avc1 / 0x31637661), yuv420p(tv, bt709, progressive), 1920x1080 [SAR 1:1 DAR 16:9], 3616 kb/s, 23.98 fps, 23.98 tbr, 24k tbn (default)
      Metadata:
        handler_name    : VideoHandler
        vendor_id       : [0][0][0][0]
        encoder         : Lavc60.31.102 h264_qsv
  Stream #1:1[0x2](und): Audio: aac (HE-AACv2) (mp4a / 0x6134706D), 48000 Hz, stereo, fltp, 144 kb/s (default)
      Metadata:
        handler_name    : SoundHandler
        vendor_id       : [0][0][0][0]
Stream mapping:
  Stream #0:0 (hevc) -> settb:default
  Stream #1:0 (h264) -> settb:default
  ssim:default -> Stream #0:0 (wrapped_avframe)
  Stream #0:1 -> #0:1 (aac (native) -> pcm_s16le (native))
Output #0, null, to 'pipe:':
  Metadata:
    COMPATIBLE_BRANDS: isomiso2avc1mp41
    MAJOR_BRAND     : isom
    MINOR_VERSION   : 512
    encoder         : Lavf61.7.100
  Stream #0:0: Video: wrapped_avframe, yuv420p10le(tv, bt709, progressive), 1920x1080 [SAR 1:1 DAR 16:9], q=2-31, 200 kb/s, 23.98 fps, 23.98 tbn
      Metadata:
        encoder         : Lavc61.19.100 wrapped_avframe
  Stream #0:1: Audio: pcm_s16le, 48000 Hz, stereo, s16, 1536 kb/s (default)
      Metadata:
        HANDLER_NAME    : SoundHandler
        VENDOR_ID       : [0][0][0][0]
        _STATISTICS_TAGS: BPS DURATION NUMBER_OF_FRAMES NUMBER_OF_BYTES
        BPS             : 193194
        DURATION        : 00:24:06.784000000
        NUMBER_OF_FRAMES: 67819
        NUMBER_OF_BYTES : 34938755
        _STATISTICS_WRITING_APP: mkvpropedit v94.0 ('Initiate') 64-bit
        _STATISTICS_WRITING_DATE_UTC: 2026-03-30 13:47:09
        encoder         : Lavc61.19.100 pcm_s16le
frame=  110 fps=0.0 q=-0.0 size=N/A time=00:00:04.58 bitrate=N/A speed=8.83x    frame=  292 fps=283 q=-0.0 size=N/A time=00:00:12.17 bitrate=N/A speed=11.8x    frame=  477 fps=306 q=-0.0 size=N/A time=00:00:19.89 bitrate=N/A speed=12.8x    frame=  662 fps=320 q=-0.0 size=N/A time=00:00:27.61 bitrate=N/A speed=13.3x    frame=  842 fps=326 q=-0.0 size=N/A time=00:00:35.11 bitrate=N/A speed=13.6x    frame=  982 fps=318 q=-0.0 size=N/A time=00:00:40.95 bitrate=N/A speed=13.2x    frame= 1139 fps=315 q=-0.0 size=N/A time=00:00:47.50 bitrate=N/A speed=13.1x    frame= 1294 fps=313 q=-0.0 size=N/A time=00:00:53.97 bitrate=N/A speed=13.1x    frame= 1453 fps=313 q=-0.0 size=N/A time=00:01:00.60 bitrate=N/A speed=13.1x    frame= 1590 fps=308 q=-0.0 size=N/A time=00:01:06.31 bitrate=N/A speed=12.9x    frame= 1737 fps=307 q=-0.0 size=N/A time=00:01:12.44 bitrate=N/A speed=12.8x    frame= 1906 fps=308 q=-0.0 size=N/A time=00:01:19.49 bitrate=N/A speed=12.8x    frame= 2054 fps=306 q=-0.0 size=N/A time=00:01:25.66 bitrate=N/A speed=12.8x    frame= 2168 fps=300 q=-0.0 size=N/A time=00:01:30.42 bitrate=N/A speed=12.5x    frame= 2324 fps=301 q=-0.0 size=N/A time=00:01:36.93 bitrate=N/A speed=12.5x    frame= 2460 fps=298 q=-0.0 size=N/A time=00:01:42.60 bitrate=N/A speed=12.4x    frame= 2603 fps=297 q=-0.0 size=N/A time=00:01:48.56 bitrate=N/A speed=12.4x    frame= 2775 fps=299 q=-0.0 size=N/A time=00:01:55.74 bitrate=N/A speed=12.5x    frame= 2945 fps=301 q=-0.0 size=N/A time=00:02:02.83 bitrate=N/A speed=12.5x    frame= 3123 fps=303 q=-0.0 size=N/A time=00:02:10.25 bitrate=N/A speed=12.6x    frame= 3311 fps=306 q=-0.0 size=N/A time=00:02:18.09 bitrate=N/A speed=12.7x    frame= 3495 fps=308 q=-0.0 size=N/A time=00:02:25.77 bitrate=N/A speed=12.8x    frame= 3681 fps=310 q=-0.0 size=N/A time=00:02:33.52 bitrate=N/A speed=12.9x    frame= 3869 fps=313 q=-0.0 size=N/A time=00:02:41.36 bitrate=N/A speed=  13x    frame= 4059 fps=315 q=-0.0 size=N/A time=00:02:49.29 bitrate=N/A speed=13.1x    frame= 4241 fps=316 q=-0.0 size=N/A time=00:02:56.88 bitrate=N/A speed=13.2x    frame= 4419 fps=317 q=-0.0 size=N/A time=00:03:04.30 bitrate=N/A speed=13.2x    frame= 4613 fps=319 q=-0.0 size=N/A time=00:03:12.40 bitrate=N/A speed=13.3x    frame= 4803 fps=321 q=-0.0 size=N/A time=00:03:20.32 bitrate=N/A speed=13.4x    frame= 4985 fps=322 q=-0.0 size=N/A time=00:03:27.91 bitrate=N/A speed=13.4x    frame= 5168 fps=323 q=-0.0 size=N/A time=00:03:35.54 bitrate=N/A speed=13.5x    frame= 5348 fps=324 q=-0.0 size=N/A time=00:03:43.05 bitrate=N/A speed=13.5x    frame= 5538 fps=325 q=-0.0 size=N/A time=00:03:50.98 bitrate=N/A speed=13.6x    frame= 5714 fps=326 q=-0.0 size=N/A time=00:03:58.32 bitrate=N/A speed=13.6x    frame= 5894 fps=326 q=-0.0 size=N/A time=00:04:05.82 bitrate=N/A speed=13.6x    frame= 6079 fps=327 q=-0.0 size=N/A time=00:04:13.54 bitrate=N/A speed=13.7x    frame= 6262 fps=328 q=-0.0 size=N/A time=00:04:21.17 bitrate=N/A speed=13.7x    frame= 6444 fps=329 q=-0.0 size=N/A time=00:04:28.76 bitrate=N/A speed=13.7x    frame= 6628 fps=329 q=-0.0 size=N/A time=00:04:36.44 bitrate=N/A speed=13.7x    frame= 6816 fps=330 q=-0.0 size=N/A time=00:04:44.28 bitrate=N/A speed=13.8x    frame= 7000 fps=331 q=-0.0 size=N/A time=00:04:51.95 bitrate=N/A speed=13.8x    frame= 7173 fps=331 q=-0.0 size=N/A time=00:04:59.17 bitrate=N/A speed=13.8x    frame= 7363 fps=332 q=-0.0 size=N/A time=00:05:07.09 bitrate=N/A speed=13.8x    frame= 7542 fps=332 q=-0.0 size=N/A time=00:05:14.56 bitrate=N/A speed=13.9x    frame= 7725 fps=333 q=-0.0 size=N/A time=00:05:22.19 bitrate=N/A speed=13.9x    frame= 7905 fps=333 q=-0.0 size=N/A time=00:05:29.70 bitrate=N/A speed=13.9x    frame= 8092 fps=334 q=-0.0 size=N/A time=00:05:37.50 bitrate=N/A speed=13.9x    frame= 8273 fps=334 q=-0.0 size=N/A time=00:05:45.05 bitrate=N/A speed=13.9x    frame= 8455 fps=334 q=-0.0 size=N/A time=00:05:52.64 bitrate=N/A speed=13.9x    frame= 8634 fps=335 q=-0.0 size=N/A time=00:06:00.10 bitrate=N/A speed=  14x    frame= 8818 fps=335 q=-0.0 size=N/A time=00:06:07.78 bitrate=N/A speed=  14x    frame= 8998 fps=335 q=-0.0 size=N/A time=00:06:15.29 bitrate=N/A speed=  14x    frame= 9178 fps=336 q=-0.0 size=N/A time=00:06:22.79 bitrate=N/A speed=  14x    frame= 9362 fps=336 q=-0.0 size=N/A time=00:06:30.47 bitrate=N/A speed=  14x    frame= 9556 fps=337 q=-0.0 size=N/A time=00:06:38.56 bitrate=N/A speed=  14x    frame= 9743 fps=337 q=-0.0 size=N/A time=00:06:46.36 bitrate=N/A speed=14.1x    frame= 9927 fps=337 q=-0.0 size=N/A time=00:06:54.03 bitrate=N/A speed=14.1x    frame=10106 fps=338 q=-0.0 size=N/A time=00:07:01.50 bitrate=N/A speed=14.1x    frame=10290 fps=338 q=-0.0 size=N/A time=00:07:09.17 bitrate=N/A speed=14.1x    frame=10476 fps=338 q=-0.0 size=N/A time=00:07:16.93 bitrate=N/A speed=14.1x    frame=10658 fps=339 q=-0.0 size=N/A time=00:07:24.52 bitrate=N/A speed=14.1x    frame=10839 fps=339 q=-0.0 size=N/A time=00:07:32.07 bitrate=N/A speed=14.1x    frame=11025 fps=339 q=-0.0 size=N/A time=00:07:39.83 bitrate=N/A speed=14.1x    frame=11206 fps=339 q=-0.0 size=N/A time=00:07:47.38 bitrate=N/A speed=14.1x    frame=11385 fps=339 q=-0.0 size=N/A time=00:07:54.84 bitrate=N/A speed=14.2x    frame=11564 fps=340 q=-0.0 size=N/A time=00:08:02.31 bitrate=N/A speed=14.2x    frame=11748 fps=340 q=-0.0 size=N/A time=00:08:09.98 bitrate=N/A speed=14.2x    frame=11936 fps=340 q=-0.0 size=N/A time=00:08:17.83 bitrate=N/A speed=14.2x    frame=12116 fps=340 q=-0.0 size=N/A time=00:08:25.33 bitrate=N/A speed=14.2x    frame=12298 fps=340 q=-0.0 size=N/A time=00:08:32.92 bitrate=N/A speed=14.2x    frame=12485 fps=341 q=-0.0 size=N/A time=00:08:40.72 bitrate=N/A speed=14.2x    frame=12667 fps=341 q=-0.0 size=N/A time=00:08:48.31 bitrate=N/A speed=14.2x    frame=12850 fps=341 q=-0.0 size=N/A time=00:08:55.95 bitrate=N/A speed=14.2x    frame=13029 fps=341 q=-0.0 size=N/A time=00:09:03.41 bitrate=N/A speed=14.2x    frame=13216 fps=341 q=-0.0 size=N/A time=00:09:11.21 bitrate=N/A speed=14.2x    frame=13397 fps=341 q=-0.0 size=N/A time=00:09:18.76 bitrate=N/A speed=14.2x    frame=13574 fps=341 q=-0.0 size=N/A time=00:09:26.14 bitrate=N/A speed=14.2x    frame=13760 fps=342 q=-0.0 size=N/A time=00:09:33.90 bitrate=N/A speed=14.3x    frame=13941 fps=342 q=-0.0 size=N/A time=00:09:41.45 bitrate=N/A speed=14.3x    frame=14116 fps=342 q=-0.0 size=N/A time=00:09:48.75 bitrate=N/A speed=14.3x    frame=14296 fps=342 q=-0.0 size=N/A time=00:09:56.26 bitrate=N/A speed=14.3x    frame=14488 fps=342 q=-0.0 size=N/A time=00:10:04.27 bitrate=N/A speed=14.3x    frame=14666 fps=342 q=-0.0 size=N/A time=00:10:11.69 bitrate=N/A speed=14.3x    frame=14849 fps=342 q=-0.0 size=N/A time=00:10:19.32 bitrate=N/A speed=14.3x    frame=15027 fps=343 q=-0.0 size=N/A time=00:10:26.75 bitrate=N/A speed=14.3x    frame=15178 fps=342 q=-0.0 size=N/A time=00:10:33.04 bitrate=N/A speed=14.3x    frame=15366 fps=342 q=-0.0 size=N/A time=00:10:40.89 bitrate=N/A speed=14.3x    frame=15548 fps=342 q=-0.0 size=N/A time=00:10:48.48 bitrate=N/A speed=14.3x    frame=15734 fps=343 q=-0.0 size=N/A time=00:10:56.23 bitrate=N/A speed=14.3x    frame=15919 fps=343 q=-0.0 size=N/A time=00:11:03.95 bitrate=N/A speed=14.3x    frame=16108 fps=343 q=-0.0 size=N/A time=00:11:11.83 bitrate=N/A speed=14.3x    frame=16290 fps=343 q=-0.0 size=N/A time=00:11:19.42 bitrate=N/A speed=14.3x    frame=16471 fps=343 q=-0.0 size=N/A time=00:11:26.97 bitrate=N/A speed=14.3x    frame=16655 fps=343 q=-0.0 size=N/A time=00:11:34.65 bitrate=N/A speed=14.3x    frame=16837 fps=343 q=-0.0 size=N/A time=00:11:42.24 bitrate=N/A speed=14.3x    frame=17025 fps=344 q=-0.0 size=N/A time=00:11:50.08 bitrate=N/A speed=14.3x    frame=17207 fps=344 q=-0.0 size=N/A time=00:11:57.67 bitrate=N/A speed=14.3x    frame=17396 fps=344 q=-0.0 size=N/A time=00:12:05.55 bitrate=N/A speed=14.3x    frame=17576 fps=344 q=-0.0 size=N/A time=00:12:13.06 bitrate=N/A speed=14.3x    frame=17748 fps=344 q=-0.0 size=N/A time=00:12:20.23 bitrate=N/A speed=14.3x    frame=17934 fps=344 q=-0.0 size=N/A time=00:12:27.99 bitrate=N/A speed=14.4x    frame=18130 fps=344 q=-0.0 size=N/A time=00:12:36.17 bitrate=N/A speed=14.4x    frame=18300 fps=344 q=-0.0 size=N/A time=00:12:43.26 bitrate=N/A speed=14.4x    frame=18474 fps=344 q=-0.0 size=N/A time=00:12:50.51 bitrate=N/A speed=14.4x    frame=18660 fps=344 q=-0.0 size=N/A time=00:12:58.27 bitrate=N/A speed=14.4x    frame=18845 fps=344 q=-0.0 size=N/A time=00:13:05.99 bitrate=N/A speed=14.4x    frame=19026 fps=345 q=-0.0 size=N/A time=00:13:13.54 bitrate=N/A speed=14.4x    frame=19206 fps=345 q=-0.0 size=N/A time=00:13:21.05 bitrate=N/A speed=14.4x    frame=19399 fps=345 q=-0.0 size=N/A time=00:13:29.09 bitrate=N/A speed=14.4x    frame=19586 fps=345 q=-0.0 size=N/A time=00:13:36.89 bitrate=N/A speed=14.4x    frame=19771 fps=345 q=-0.0 size=N/A time=00:13:44.61 bitrate=N/A speed=14.4x    frame=19956 fps=345 q=-0.0 size=N/A time=00:13:52.33 bitrate=N/A speed=14.4x    frame=20139 fps=345 q=-0.0 size=N/A time=00:13:59.96 bitrate=N/A speed=14.4x    frame=20325 fps=345 q=-0.0 size=N/A time=00:14:07.72 bitrate=N/A speed=14.4x    frame=20498 fps=345 q=-0.0 size=N/A time=00:14:14.93 bitrate=N/A speed=14.4x    frame=20669 fps=345 q=-0.0 size=N/A time=00:14:22.06 bitrate=N/A speed=14.4x    frame=20864 fps=346 q=-0.0 size=N/A time=00:14:30.20 bitrate=N/A speed=14.4x    frame=21045 fps=346 q=-0.0 size=N/A time=00:14:37.75 bitrate=N/A speed=14.4x    frame=21228 fps=346 q=-0.0 size=N/A time=00:14:45.38 bitrate=N/A speed=14.4x    frame=21416 fps=346 q=-0.0 size=N/A time=00:14:53.22 bitrate=N/A speed=14.4x    frame=21595 fps=346 q=-0.0 size=N/A time=00:15:00.69 bitrate=N/A speed=14.4x    frame=21781 fps=346 q=-0.0 size=N/A time=00:15:08.44 bitrate=N/A speed=14.4x    frame=21965 fps=346 q=-0.0 size=N/A time=00:15:16.12 bitrate=N/A speed=14.4x    frame=22150 fps=346 q=-0.0 size=N/A time=00:15:23.83 bitrate=N/A speed=14.4x    frame=22340 fps=346 q=-0.0 size=N/A time=00:15:31.76 bitrate=N/A speed=14.4x    frame=22523 fps=346 q=-0.0 size=N/A time=00:15:39.39 bitrate=N/A speed=14.4x    frame=22698 fps=346 q=-0.0 size=N/A time=00:15:46.69 bitrate=N/A speed=14.4x    frame=22878 fps=346 q=-0.0 size=N/A time=00:15:54.20 bitrate=N/A speed=14.4x    frame=23065 fps=346 q=-0.0 size=N/A time=00:16:02.00 bitrate=N/A speed=14.4x    frame=23249 fps=347 q=-0.0 size=N/A time=00:16:09.67 bitrate=N/A speed=14.5x    frame=23429 fps=347 q=-0.0 size=N/A time=00:16:17.18 bitrate=N/A speed=14.5x    frame=23620 fps=347 q=-0.0 size=N/A time=00:16:25.15 bitrate=N/A speed=14.5x    frame=23806 fps=347 q=-0.0 size=N/A time=00:16:32.90 bitrate=N/A speed=14.5x    frame=23990 fps=347 q=-0.0 size=N/A time=00:16:40.58 bitrate=N/A speed=14.5x    frame=24167 fps=347 q=-0.0 size=N/A time=00:16:47.96 bitrate=N/A speed=14.5x    frame=24358 fps=347 q=-0.0 size=N/A time=00:16:55.93 bitrate=N/A speed=14.5x    frame=24550 fps=347 q=-0.0 size=N/A time=00:17:03.93 bitrate=N/A speed=14.5x    frame=24730 fps=347 q=-0.0 size=N/A time=00:17:11.44 bitrate=N/A speed=14.5x    frame=24912 fps=347 q=-0.0 size=N/A time=00:17:19.03 bitrate=N/A speed=14.5x    frame=25100 fps=347 q=-0.0 size=N/A time=00:17:26.87 bitrate=N/A speed=14.5x    frame=25289 fps=347 q=-0.0 size=N/A time=00:17:34.76 bitrate=N/A speed=14.5x    frame=25476 fps=347 q=-0.0 size=N/A time=00:17:42.56 bitrate=N/A speed=14.5x    frame=25654 fps=347 q=-0.0 size=N/A time=00:17:49.98 bitrate=N/A speed=14.5x    frame=25853 fps=348 q=-0.0 size=N/A time=00:17:58.28 bitrate=N/A speed=14.5x    frame=26042 fps=348 q=-0.0 size=N/A time=00:18:06.16 bitrate=N/A speed=14.5x    frame=26224 fps=348 q=-0.0 size=N/A time=00:18:13.75 bitrate=N/A speed=14.5x    frame=26409 fps=348 q=-0.0 size=N/A time=00:18:21.47 bitrate=N/A speed=14.5x    frame=26591 fps=348 q=-0.0 size=N/A time=00:18:29.06 bitrate=N/A speed=14.5x    frame=26781 fps=348 q=-0.0 size=N/A time=00:18:36.99 bitrate=N/A speed=14.5x    frame=26960 fps=348 q=-0.0 size=N/A time=00:18:44.45 bitrate=N/A speed=14.5x    frame=27136 fps=348 q=-0.0 size=N/A time=00:18:51.79 bitrate=N/A speed=14.5x    frame=27320 fps=348 q=-0.0 size=N/A time=00:18:59.47 bitrate=N/A speed=14.5x    frame=27507 fps=348 q=-0.0 size=N/A time=00:19:07.27 bitrate=N/A speed=14.5x    frame=27682 fps=348 q=-0.0 size=N/A time=00:19:14.57 bitrate=N/A speed=14.5x    frame=27858 fps=348 q=-0.0 size=N/A time=00:19:21.91 bitrate=N/A speed=14.5x    frame=28040 fps=348 q=-0.0 size=N/A time=00:19:29.50 bitrate=N/A speed=14.5x    frame=28225 fps=348 q=-0.0 size=N/A time=00:19:37.21 bitrate=N/A speed=14.5x    frame=28405 fps=348 q=-0.0 size=N/A time=00:19:44.72 bitrate=N/A speed=14.5x    frame=28586 fps=348 q=-0.0 size=N/A time=00:19:52.27 bitrate=N/A speed=14.5x    frame=28767 fps=348 q=-0.0 size=N/A time=00:19:59.82 bitrate=N/A speed=14.5x    frame=28941 fps=348 q=-0.0 size=N/A time=00:20:07.08 bitrate=N/A speed=14.5x    frame=29107 fps=348 q=-0.0 size=N/A time=00:20:14.00 bitrate=N/A speed=14.5x    frame=29280 fps=348 q=-0.0 size=N/A time=00:20:21.22 bitrate=N/A speed=14.5x    frame=29459 fps=348 q=-0.0 size=N/A time=00:20:28.68 bitrate=N/A speed=14.5x    frame=29629 fps=348 q=-0.0 size=N/A time=00:20:35.77 bitrate=N/A speed=14.5x    frame=29803 fps=348 q=-0.0 size=N/A time=00:20:43.03 bitrate=N/A speed=14.5x    frame=29967 fps=348 q=-0.0 size=N/A time=00:20:49.87 bitrate=N/A speed=14.5x    frame=30127 fps=347 q=-0.0 size=N/A time=00:20:56.54 bitrate=N/A speed=14.5x    frame=30303 fps=347 q=-0.0 size=N/A time=00:21:03.88 bitrate=N/A speed=14.5x    frame=30485 fps=347 q=-0.0 size=N/A time=00:21:11.47 bitrate=N/A speed=14.5x    frame=30667 fps=347 q=-0.0 size=N/A time=00:21:19.06 bitrate=N/A speed=14.5x    frame=30858 fps=347 q=-0.0 size=N/A time=00:21:27.03 bitrate=N/A speed=14.5x    frame=31043 fps=347 q=-0.0 size=N/A time=00:21:34.75 bitrate=N/A speed=14.5x    frame=31225 fps=348 q=-0.0 size=N/A time=00:21:42.34 bitrate=N/A speed=14.5x    frame=31404 fps=348 q=-0.0 size=N/A time=00:21:49.80 bitrate=N/A speed=14.5x    frame=31581 fps=348 q=-0.0 size=N/A time=00:21:57.19 bitrate=N/A speed=14.5x    frame=31770 fps=348 q=-0.0 size=N/A time=00:22:05.07 bitrate=N/A speed=14.5x    frame=31944 fps=348 q=-0.0 size=N/A time=00:22:12.33 bitrate=N/A speed=14.5x    frame=32125 fps=348 q=-0.0 size=N/A time=00:22:19.88 bitrate=N/A speed=14.5x    frame=32310 fps=348 q=-0.0 size=N/A time=00:22:27.59 bitrate=N/A speed=14.5x    frame=32492 fps=348 q=-0.0 size=N/A time=00:22:35.18 bitrate=N/A speed=14.5x    frame=32655 fps=347 q=-0.0 size=N/A time=00:22:41.98 bitrate=N/A speed=14.5x    frame=32809 fps=347 q=-0.0 size=N/A time=00:22:48.40 bitrate=N/A speed=14.5x    frame=32972 fps=347 q=-0.0 size=N/A time=00:22:55.20 bitrate=N/A speed=14.5x    frame=33154 fps=347 q=-0.0 size=N/A time=00:23:02.79 bitrate=N/A speed=14.5x    frame=33331 fps=347 q=-0.0 size=N/A time=00:23:10.18 bitrate=N/A speed=14.5x    frame=33494 fps=347 q=-0.0 size=N/A time=00:23:16.97 bitrate=N/A speed=14.5x    frame=33646 fps=347 q=-0.0 size=N/A time=00:23:23.31 bitrate=N/A speed=14.5x    frame=33777 fps=346 q=-0.0 size=N/A time=00:23:28.78 bitrate=N/A speed=14.4x    frame=33900 fps=346 q=-0.0 size=N/A time=00:23:33.91 bitrate=N/A speed=14.4x    frame=34060 fps=345 q=-0.0 size=N/A time=00:23:40.58 bitrate=N/A speed=14.4x    frame=34221 fps=345 q=-0.0 size=N/A time=00:23:47.30 bitrate=N/A speed=14.4x    frame=34359 fps=345 q=-0.0 size=N/A time=00:23:53.05 bitrate=N/A speed=14.4x    frame=34489 fps=344 q=-0.0 size=N/A time=00:23:58.47 bitrate=N/A speed=14.4x    frame=34675 fps=344 q=-0.0 size=N/A time=00:24:06.23 bitrate=N/A speed=14.4x    [Parsed_ssim_16 @ 00000221c2178980] SSIM Y:0.994249 (22.402279) U:0.993978 (22.202505) V:0.993584 (21.927141) All:0.994093 (22.286090)
[out#0/null @ 00000221b554dec0] video:14903KiB audio:271276KiB subtitle:0KiB other streams:0KiB global headers:0KiB muxing overhead: unknown
frame=34683 fps=344 q=-0.0 Lsize=N/A time=00:24:06.57 bitrate=N/A speed=14.4x    
